<svg width="16" height="16" viewBox="0 0 16 16" xmlns="http://www.w3.org/2000/svg">
  <path
    d="M9.53674e-07 8C9.53674e-07 12.4062 3.58004 16 8 16C12.42 16 16 12.4062 16 8C16 3.5938 12.4062 0 8 0C3.5938 0 9.53674e-07 3.5938 9.53674e-07 8ZM14.8709 8C14.8709 11.7866 11.7866 14.8709 8 14.8709C4.21343 14.8709 1.12909 11.7866 1.12909 8C1.12909 4.21342 4.21343 1.12909 8 1.12909C11.7866 1.12909 14.8709 4.21342 14.8709 8Z"
  />
  <path
    d="M4.00713 6.15476C3.89698 6.26492 3.8419 6.40261 3.8419 6.55408C3.8419 6.69177 3.89698 6.84323 4.00713 6.95339L7.64224 10.5885C7.7524 10.6987 7.89009 10.7537 8.04156 10.7537C8.19302 10.7537 8.33071 10.6987 8.44087 10.5885L12.076 6.95339C12.2963 6.73308 12.2963 6.37507 12.076 6.15476C11.8557 5.93445 11.4977 5.93445 11.2774 6.15476L8.04156 9.39057L4.80576 6.15476C4.58545 5.93445 4.22744 5.93445 4.00713 6.15476Z"
  />
</svg>
