<svg width="18" height="20" viewBox="0 0 18 20" xmlns="http://www.w3.org/2000/svg">
  <path
    d="M13.5276 1.71558H9.76304V0H4.65099V1.71558H0.886475V4.42438H13.5276V1.71558ZM6.00539 1.3544H8.40864V1.71558H6.00539V1.3544Z"
  />
  <path
    d="M12.3248 9.67539L12.5804 5.77878H1.83398L2.69249 18.8713H7.84697C7.17605 17.9202 6.78142 16.7609 6.78142 15.5111C6.78142 12.3896 9.24164 9.83201 12.3248 9.67539Z"
  />
  <path
    d="M12.6244 11.0222C10.1492 11.0222 8.1355 13.0359 8.1355 15.5111C8.1355 17.9863 10.1492 20 12.6244 20C15.0997 20 17.1134 17.9863 17.1134 15.5111C17.1134 13.0359 15.0997 11.0222 12.6244 11.0222ZM15.0703 16.9993L14.1126 17.957L12.6244 16.4688L11.1363 17.957L10.1786 16.9993L11.6667 15.5111L10.1786 14.0229L11.1363 13.0652L12.6244 14.5534L14.1126 13.0652L15.0703 14.0229L13.5821 15.5111L15.0703 16.9993Z"
  />
</svg>
