<svg width="12" height="12" viewBox="0 0 12 12" xmlns="http://www.w3.org/2000/svg">
  <path
    d="M11.8729 5.69871L10.1586 3.9844C10.0738 3.89957 9.97334 3.85718 9.85724 3.85718C9.74118 3.85718 9.64077 3.89957 9.55591 3.9844C9.47117 4.06929 9.42869 4.16974 9.42869 4.2858V5.14301H6.8572V2.57152H7.71446C7.83051 2.57152 7.93099 2.52909 8.01579 2.4443C8.10055 2.35946 8.14293 2.2591 8.14293 2.14297C8.14293 2.02682 8.10055 1.92636 8.01579 1.84155L6.30143 0.12722C6.21669 0.0424067 6.11625 0 6.00011 0C5.88396 0 5.78357 0.0424302 5.69871 0.12722L3.98443 1.84155C3.89957 1.92643 3.85721 2.02689 3.85721 2.14297C3.85721 2.25898 3.89959 2.35944 3.98443 2.4443C4.06931 2.52909 4.16967 2.57152 4.28582 2.57152H5.14299V5.14303H2.57152V4.28582C2.57152 4.16967 2.52909 4.06924 2.44425 3.98443C2.35937 3.89959 2.25891 3.85721 2.14285 3.85721C2.02682 3.85721 1.92636 3.89959 1.84153 3.98443L0.12722 5.69871C0.0424302 5.78355 0 5.88396 0 6.00004C0 6.11611 0.0424302 6.2166 0.12722 6.30136L1.84153 8.01562C1.92636 8.10036 2.02675 8.14301 2.14285 8.14301C2.259 8.14301 2.35944 8.10039 2.44425 8.01562C2.52909 7.93095 2.57152 7.83037 2.57152 7.71429V6.85704H5.14299V9.42855H4.28589C4.16974 9.42855 4.06929 9.47103 3.98447 9.55577C3.89964 9.64061 3.85725 9.74102 3.85725 9.8571C3.85725 9.97318 3.89964 10.0737 3.98447 10.1586L5.69878 11.8728C5.78371 11.9575 5.88412 12 6.0002 12C6.11625 12 6.21683 11.9575 6.30153 11.8728L8.01579 10.1586C8.10072 10.0737 8.1431 9.97318 8.1431 9.8571C8.1431 9.74102 8.10072 9.64063 8.01579 9.55577C7.93102 9.47103 7.83054 9.42855 7.71446 9.42855H6.85736V6.85711H9.42881V7.71446C9.42881 7.83051 9.47119 7.931 9.55594 8.01579C9.64087 8.10053 9.74135 8.1431 9.85743 8.1431C9.97339 8.1431 10.0738 8.10055 10.1588 8.01579L11.873 6.30143C11.9579 6.2166 12.0002 6.11611 12.0002 6.00004C12.0002 5.88396 11.9579 5.78355 11.8729 5.69871Z"
  />
</svg>
