<svg width="16" height="16" viewBox="0 0 16 16" xmlns="http://www.w3.org/2000/svg">
  <path fill-rule="evenodd" clip-rule="evenodd"
        d="M15.9495 7.11169C15.9242 6.88678 15.662 6.71777 15.4352 6.71777C14.7021 6.71777 14.0516 6.2873 13.7787 5.62156C13.5 4.93968 13.6797 4.14446 14.2261 3.64326C14.3981 3.48604 14.419 3.22285 14.2747 3.04003C13.8995 2.56354 13.473 2.13312 13.0074 1.7601C12.825 1.61377 12.5575 1.63413 12.3994 1.80921C11.9225 2.33732 11.066 2.53359 10.4041 2.25743C9.71533 1.96769 9.28099 1.26974 9.32349 0.520533C9.33748 0.285204 9.1655 0.0805941 8.93088 0.0532691C8.33331 -0.0158471 7.73049 -0.0179902 7.13112 0.0485066C6.89919 0.0741052 6.7272 0.273893 6.735 0.506245C6.76108 1.24807 6.32149 1.93381 5.63956 2.21314C4.98561 2.48025 4.13508 2.28564 3.65918 1.76224C3.5019 1.58984 3.23871 1.56865 3.05547 1.71146C2.576 2.08764 2.13994 2.51841 1.76125 2.99098C1.61356 3.17469 1.63529 3.44097 1.809 3.59903C2.3658 4.10326 2.54558 4.90539 2.25632 5.59513C1.98015 6.25271 1.29733 6.67652 0.515616 6.67652C0.261951 6.66836 0.0812731 6.83862 0.0535314 7.06925C-0.016835 7.67028 -0.0176684 8.28268 0.0500785 8.88859C0.0752009 9.11445 0.345415 9.28198 0.574671 9.28198C1.27131 9.26418 1.94015 9.69548 2.22072 10.3783C2.5004 11.0601 2.32061 11.8549 1.7734 12.3565C1.60225 12.5137 1.58052 12.7765 1.72476 12.9593C2.09648 13.4328 2.52302 13.8636 2.99034 14.2397C3.17364 14.3874 3.44034 14.3666 3.59923 14.1915C4.07787 13.6621 4.93435 13.4662 5.5936 13.7429C6.28411 14.0317 6.71845 14.7296 6.67595 15.4792C6.66207 15.7147 6.83489 15.9196 7.06856 15.9465C7.37425 15.9822 7.68179 16 7.99017 16C8.28288 16 8.57566 15.9839 8.86837 15.9514C9.10037 15.9258 9.27224 15.726 9.26444 15.4932C9.23759 14.7518 9.67795 14.0661 10.359 13.7872C11.0173 13.5183 11.8643 13.7151 12.3403 14.238C12.4984 14.41 12.7598 14.4308 12.944 14.2885C13.4226 13.9132 13.8578 13.4828 14.2382 13.0089C14.3859 12.8256 14.365 12.5589 14.1904 12.4009C13.6336 11.8967 13.453 11.0944 13.7422 10.4052C14.0142 9.75632 14.6716 9.32067 15.3788 9.32067L15.4778 9.32323C15.7071 9.34187 15.9182 9.16518 15.946 8.93104C16.0165 8.32947 16.0173 7.71761 15.9495 7.11169ZM8.01249 10.6854C6.54099 10.6854 5.34405 9.48843 5.34405 8.01693C5.34405 6.54549 6.54099 5.34849 8.01249 5.34849C9.48393 5.34849 10.6809 6.54549 10.6809 8.01693C10.6809 9.48843 9.48393 10.6854 8.01249 10.6854Z"
  />
</svg>
